PathFileType	4	(X/Y/Z)	D:\telocate\uwb05-Unnamed.trc
DataRate	CameraRate	NumFrames	NumMarkers	Units	OrigDataRate	OrigDataStartFrame	OrigNumFrames
100.00	100.00	      257	0	mm	100.00	4118	      8235
Frame#	Time	
		

4118	41.170	-891.93463	1323.23828	1143.49915	
4119	41.180	-895.42908	1316.08643	1143.33093	
4120	41.190	-902.07697	1307.05139	1143.79089	
4121	41.200	-910.42444	1297.76392	1145.52576	
4122	41.210	-915.96118	1288.93823	1146.41541	
4123	41.220	-921.90082	1281.40979	1146.69873	
4124	41.230	-926.79059	1272.11719	1147.13843	
4125	41.240	-932.90979	1264.14697	1148.39978	
4126	41.250	-938.55762	1255.15503	1148.56848	
4127	41.260	-944.61877	1246.54712	1149.53357	
4128	41.270	-950.77765	1238.69214	1149.19238	
4129	41.280	-956.85107	1229.57617	1150.00244	
4130	41.290	-964.80310	1220.70422	1150.25183	
4131	41.300	-971.12177	1210.04724	1150.05249	
4132	41.310	-977.13745	1200.81702	1149.90173	
4133	41.320	-983.12738	1191.33850	1150.00891	
4134	41.330	-989.14130	1181.62683	1149.72156	
4135	41.340	-995.67719	1172.04504	1149.82043	
4136	41.350	-1001.46838	1162.39392	1149.13623	
4137	41.360	-1008.31366	1152.20752	1148.89111	
4138	41.370	-1014.72412	1141.81409	1148.57410	
4139	41.380	-1022.23706	1131.71863	1148.56482	
4140	41.390	-1028.63794	1120.90771	1147.47583	
4141	41.400	-1034.86475	1110.62720	1147.44202	
4142	41.410	-1041.36829	1099.67346	1146.58740	
4143	41.420	-1047.13220	1088.62952	1145.70825	
4144	41.430	-1053.88672	1078.03406	1144.88574	
4145	41.440	-1061.55371	1066.53503	1144.57666	
4146	41.450	-1066.65674	1055.28027	1142.86548	
4147	41.460	-1073.00293	1044.85706	1141.33142	
4148	41.470	-1080.94348	1032.69556	1141.93213	
4149	41.480	-1086.55273	1022.05353	1140.73901	
4150	41.490	-1092.48499	1011.08130	1139.96765	
4151	41.500	-1098.73962	1000.11859	1140.04810	
4152	41.510	-1104.45532	989.33331	1138.92090	
4153	41.520	-1109.91846	978.22778	1138.28259	
4154	41.530	-1116.08667	966.56342	1138.26221	
4155	41.540	-1123.14551	955.89581	1137.69763	
4156	41.550	-1128.05334	945.08081	1137.44287	
4157	41.560	-1134.47058	934.52802	1137.64575	
4158	41.570	-1137.87134	924.68109	1136.18958	
4159	41.580	-1145.65100	914.08685	1137.34961	
4160	41.590	-1150.27332	903.52899	1137.53357	
4161	41.600	-1155.20581	893.85895	1137.83875	
4162	41.610	-1160.49609	883.65564	1139.25916	
4163	41.620	-1164.68359	874.44550	1140.10950	
4164	41.630	-1169.48230	864.60077	1141.31653	
4165	41.640	-1173.02527	854.89404	1141.77295	
4166	41.650	-1177.92200	844.55768	1143.31909	
4167	41.660	-1181.93225	834.70984	1144.10364	
4168	41.670	-1186.63599	824.77197	1145.53735	
4169	41.680	-1191.02466	815.47052	1146.58289	
4170	41.690	-1196.91309	805.07501	1147.94128	
4171	41.700	-1200.16455	795.50439	1148.48730	
4172	41.710	-1202.79700	785.09833	1148.21436	
4173	41.720	-1207.06116	774.46417	1149.11853	
4174	41.730	-1211.21069	764.51642	1150.06238	
4175	41.740	-1215.25244	754.44244	1151.07666	
4176	41.750	-1218.26685	744.77362	1152.15198	
4177	41.760	-1221.51270	735.49384	1152.94116	
4178	41.770	-1224.79150	725.02600	1154.28870	
4179	41.780	-1227.86389	715.90625	1155.34558	
4180	41.790	-1230.56445	705.64728	1156.15564	
4181	41.800	-1233.49316	695.43256	1157.52246	
4182	41.810	-1236.04956	685.08167	1158.64404	
4183	41.820	-1238.10437	676.01813	1159.54602	
4184	41.830	-1241.15454	665.88477	1160.94910	
4185	41.840	-1242.93140	655.39496	1161.44885	
4186	41.850	-1244.94373	645.49603	1161.93616	
4187	41.860	-1247.31421	634.23590	1163.08289	
4188	41.870	-1249.80505	623.89124	1163.97827	
4189	41.880	-1251.70520	612.84833	1164.05884	
4190	41.890	-1253.76477	602.48395	1164.24304	
4191	41.900	-1254.84448	591.73645	1163.74890	
4192	41.910	-1257.37134	581.36792	1164.26880	
4193	41.920	-1259.08716	569.93140	1164.42859	
4194	41.930	-1261.21216	558.91815	1164.56482	
4195	41.940	-1263.02039	547.34442	1164.22156	
4196	41.950	-1264.79626	536.28632	1163.77234	
4197	41.960	-1266.32935	524.76257	1163.28674	
4198	41.970	-1267.80261	513.46936	1162.95007	
4199	41.980	-1269.81763	501.99286	1162.28235	
4200	41.990	-1271.11047	490.06207	1161.48975	
4201	42.000	-1273.31604	478.72806	1161.93652	
4202	42.010	-1275.15295	466.86453	1161.22778	
4203	42.020	-1276.80115	454.89163	1160.38489	
4204	42.030	-1278.18616	443.65051	1160.12000	
4205	42.040	-1279.96777	431.61081	1159.35181	
4206	42.050	-1280.96045	420.35455	1158.13208	
4207	42.060	-1282.37756	408.71078	1157.57605	
4208	42.070	-1283.80725	397.05835	1157.02368	
4209	42.080	-1285.19897	385.79987	1156.51184	
4210	42.090	-1285.94897	374.20016	1155.63879	
4211	42.100	-1287.18311	363.41049	1154.99548	
4212	42.110	-1288.63806	352.13528	1155.19495	
4213	42.120	-1288.93665	341.60574	1154.24023	
4214	42.130	-1290.12549	330.81644	1154.89124	
4215	42.140	-1290.95251	320.75259	1154.77966	
4216	42.150	-1291.64453	310.20065	1155.68970	
4217	42.160	-1291.93689	300.52719	1156.37195	
4218	42.170	-1292.26563	290.65939	1156.84375	
4219	42.180	-1292.71582	280.19803	1157.36963	
4220	42.190	-1292.33459	270.63416	1157.77405	
4221	42.200	-1292.78857	260.35843	1158.04590	
4222	42.210	-1293.42468	250.79669	1159.24402	
4223	42.220	-1293.19592	240.72830	1159.49353	
4224	42.230	-1294.04565	230.36848	1160.95508	
4225	42.240	-1294.29468	221.24048	1161.68896	
4226	42.250	-1294.44080	211.53360	1163.04907	
4227	42.260	-1294.81421	202.13972	1163.49390	
4228	42.270	-1295.67834	193.91180	1164.29211	
4229	42.280	-1296.18701	183.00555	1166.15833	
4230	42.290	-1296.47412	173.25987	1166.94324	
4231	42.300	-1296.69714	164.00404	1167.82764	
4232	42.310	-1296.91101	155.07185	1168.64514	
4233	42.320	-1296.79028	146.07457	1169.26514	
4234	42.330	-1297.07666	136.13060	1170.57947	
4235	42.340	-1297.52649	126.55737	1172.15894	
4236	42.350	-1297.29565	117.24995	1172.86597	
4237	42.360	-1297.45630	107.27763	1173.35547	
4238	42.370	-1297.82336	97.59336	1174.09766	
4239	42.380	-1297.60144	88.15528	1173.27563	
4240	42.390	-1298.06299	76.97932	1174.19348	
4241	42.400	-1297.93176	66.59580	1173.89209	
4242	42.410	-1298.65356	56.87392	1173.34094	
4243	42.420	-1298.99121	46.15625	1173.53455	
4244	42.430	-1298.90625	33.97748	1173.13062	
4245	42.440	-1299.40063	23.77458	1172.32715	
4246	42.450	-1299.35620	11.96811	1172.12451	
4247	42.460	-1299.75452	0.94109	1171.31812	
4248	42.470	-1299.73486	-10.75011	1170.69531	
4249	42.480	-1300.17542	-22.27531	1169.87439	
4250	42.490	-1299.78540	-34.64774	1168.87512	
4251	42.500	-1300.06213	-46.43284	1168.10999	
4252	42.510	-1300.16064	-58.83470	1166.95508	
4253	42.520	-1300.03577	-71.33813	1166.16565	
4254	42.530	-1300.62268	-83.83531	1165.28394	
4255	42.540	-1300.81055	-96.18532	1164.13855	
4256	42.550	-1301.18628	-108.46304	1163.15918	
4257	42.560	-1300.67163	-120.59294	1161.13513	
4258	42.570	-1300.84595	-134.47896	1160.24121	
4259	42.580	-1301.38123	-146.39458	1158.76440	
4260	42.590	-1301.59229	-159.27411	1157.61426	
4261	42.600	-1301.49927	-171.43462	1156.32996	
4262	42.610	-1302.10132	-183.40480	1155.41602	
4263	42.620	-1302.13660	-195.59799	1154.13025	
4264	42.630	-1302.36829	-208.56673	1153.10657	
4265	42.640	-1302.33435	-221.28149	1152.56396	
4266	42.650	-1302.77551	-233.32352	1151.69336	
4267	42.660	-1303.32520	-244.68059	1151.20532	
4268	42.670	-1303.59778	-255.68611	1151.04028	
4269	42.680	-1304.35156	-265.79095	1151.39478	
4270	42.690	-1304.41260	-276.41489	1152.12585	
4271	42.700	-1304.41138	-286.63620	1152.89844	
4272	42.710	-1304.51416	-297.38712	1153.73279	
4273	42.720	-1305.04236	-307.74252	1155.77002	
4274	42.730	-1304.87134	-317.49377	1156.80408	
4275	42.740	-1305.29150	-327.80368	1158.26147	
4276	42.750	-1305.22046	-337.59915	1159.71411	
4277	42.760	-1305.32336	-348.08148	1161.04834	
4278	42.770	-1305.34351	-358.62222	1162.23181	
4279	42.780	-1305.56201	-369.36923	1163.76379	
4280	42.790	-1305.46021	-380.03534	1164.57202	
4281	42.800	-1305.79053	-391.03458	1166.15601	
4282	42.810	-1305.44788	-400.79437	1167.18103	
4283	42.820	-1305.38696	-411.00482	1168.95398	
4284	42.830	-1304.92346	-420.84265	1170.40100	
4285	42.840	-1304.35327	-431.03384	1172.00134	
4286	42.850	-1303.90393	-440.86819	1173.56616	
4287	42.860	-1303.48108	-450.76593	1175.86890	
4288	42.870	-1301.79517	-461.01831	1177.53772	
4289	42.880	-1300.95569	-470.72925	1179.17517	
4290	42.890	-1299.71729	-480.39566	1180.77637	
4291	42.900	-1298.43347	-490.31647	1182.27441	
4292	42.910	-1296.95288	-499.92529	1183.68005	
4293	42.920	-1295.34741	-510.01505	1184.74915	
4294	42.930	-1294.00403	-520.75305	1186.29102	
4295	42.940	-1292.73022	-531.22473	1187.05090	
4296	42.950	-1291.59607	-541.64075	1187.56213	
4297	42.960	-1289.67090	-553.01935	1188.12524	
4298	42.970	-1288.28638	-564.09515	1188.66528	
4299	42.980	-1286.80762	-575.15662	1188.89697	
4300	42.990	-1284.49646	-586.69250	1188.67590	
4301	43.000	-1283.02734	-597.85632	1188.65625	
4302	43.010	-1281.32300	-609.55853	1188.31262	
4303	43.020	-1279.50037	-621.28705	1188.06921	
4304	43.030	-1277.46814	-633.27557	1187.62427	
4305	43.040	-1275.71472	-644.60022	1187.56506	
4306	43.050	-1273.63367	-656.85718	1187.09448	
4307	43.060	-1271.49316	-668.76447	1186.88965	
4308	43.070	-1269.60803	-680.09503	1186.28625	
4309	43.080	-1267.47644	-692.31183	1185.94495	
4310	43.090	-1264.56592	-704.54999	1185.45679	
4311	43.100	-1262.16650	-716.45203	1184.69788	
4312	43.110	-1259.89441	-727.74426	1184.62939	
4313	43.120	-1257.72693	-739.43640	1184.24060	
4314	43.130	-1254.95435	-751.01288	1184.25269	
4315	43.140	-1252.32507	-762.17755	1183.47693	
4316	43.150	-1250.10254	-773.67303	1183.86340	
4317	43.160	-1247.35510	-784.96741	1183.31189	
4318	43.170	-1244.88562	-796.03308	1183.23340	
4319	43.180	-1242.63098	-807.34479	1183.37854	
4320	43.190	-1240.19092	-818.23419	1183.79565	
4321	43.200	-1237.24988	-828.44342	1183.55493	
4322	43.210	-1234.72864	-839.10870	1183.82043	
4323	43.220	-1232.23596	-849.29700	1184.52759	
4324	43.230	-1229.78955	-859.77515	1185.25000	
4325	43.240	-1227.23621	-869.13885	1186.28552	
4326	43.250	-1225.22290	-878.19507	1186.86755	
4327	43.260	-1221.82617	-887.71478	1187.16223	
4328	43.270	-1219.67102	-896.86877	1188.90247	
4329	43.280	-1216.55042	-905.33087	1189.34192	
4330	43.290	-1214.12671	-915.40833	1191.13062	
4331	43.300	-1211.06592	-924.22534	1192.15320	
4332	43.310	-1207.93054	-932.94318	1193.20190	
4333	43.320	-1205.10901	-942.05432	1194.75439	
4334	43.330	-1202.50928	-950.58466	1196.19788	
4335	43.340	-1198.97986	-959.24805	1196.75464	
4336	43.350	-1196.04175	-967.91772	1198.18176	
4337	43.360	-1192.73108	-976.81439	1199.18958	
4338	43.370	-1189.86755	-985.69012	1200.25122	
4339	43.380	-1186.79126	-994.21973	1200.83276	
4340	43.390	-1184.03638	-1003.21552	1202.01831	
4341	43.400	-1181.08264	-1012.01599	1202.96069	
4342	43.410	-1178.09741	-1021.03174	1203.63428	
4343	43.420	-1174.66345	-1030.21387	1203.78430	
4344	43.430	-1171.75171	-1039.17725	1204.86023	
4345	43.440	-1168.25928	-1048.48511	1205.50049	
4346	43.450	-1165.16724	-1057.71411	1206.20898	
4347	43.460	-1161.84766	-1066.24146	1206.81384	
4348	43.470	-1158.33765	-1075.99646	1207.51428	
4349	43.480	-1154.87903	-1084.88831	1207.55786	
4350	43.490	-1151.27417	-1093.71875	1207.88037	
4351	43.500	-1147.68530	-1104.06787	1208.24890	
4352	43.510	-1143.33728	-1114.85205	1207.51624	
4353	43.520	-1139.44678	-1124.70361	1207.15674	
4354	43.530	-1135.74390	-1135.70654	1207.14771	
4355	43.540	-1131.61279	-1146.46167	1206.32092	
4356	43.550	-1127.60706	-1157.54041	1205.34741	
4357	43.560	-1123.82349	-1168.55664	1204.67603	
4358	43.570	-1119.74414	-1179.90112	1203.87708	
4359	43.580	-1115.49756	-1192.36865	1203.11230	
4360	43.590	-1111.11584	-1204.18945	1202.25977	
4361	43.600	-1106.74756	-1215.52063	1200.65210	
4362	43.610	-1102.78491	-1226.95190	1199.79944	
4363	43.620	-1098.89221	-1238.62317	1199.01929	
4364	43.630	-1094.20398	-1250.58545	1197.89258	
4365	43.640	-1089.90540	-1263.19592	1197.11304	
4366	43.650	-1084.95410	-1275.38477	1196.29761	
4367	43.660	-1080.49634	-1287.22314	1194.82141	
4368	43.670	-1076.13098	-1299.33240	1193.58325	
4369	43.680	-1071.57043	-1311.34644	1192.41992	
4370	43.690	-1067.50977	-1323.52991	1191.72632	
4371	43.700	-1062.81030	-1335.74438	1190.90295	
4372	43.710	-1058.42212	-1347.32751	1190.25696	
4373	43.720	-1054.64160	-1359.17627	1189.97888	
4374	43.730	-1050.53076	-1370.56018	1189.18713	
